<svg width="1920" height="1080" viewBox="0 0 1920 1080" fill="none" xmlns="http://www.w3.org/2000/svg">
<g opacity="0.7" clip-path="url(#clip0_3_47)">
<rect width="1920" height="1080" fill="#F21606"/>
<g opacity="0.1">
<path d="M-24.7224 911.906L-188.306 651.704L561.589 143.706L757.051 382.312L-24.7224 911.906Z" fill="#DD392D" stroke="white" stroke-width="13"/>
<path d="M142.418 689.807L111.257 710.916L69.3915 654.309C61.2302 643.06 54.8919 634.636 50.3765 629.035L49.8201 629.412C51.5193 635.116 54.7304 643.585 59.4533 654.817L61.6671 660.083L88.0716 726.623L56.9108 747.732L10.8453 702.899L2.708 694.882C-7.67902 685.141 -14.6655 678.689 -18.2515 675.526L-18.808 675.903C-15.1143 682.421 -8.72007 692.792 0.374579 707.016C0.83729 707.965 1.6969 709.367 2.9534 711.222L35.2095 762.433L3.8632 783.668L-63.3056 674.928L-10.258 638.992L29.7404 678.463L40.259 689.197C38.6515 684.694 36.689 679.8 34.3714 674.514L12.3707 623.663L66.5311 586.973L142.418 689.807Z" fill="white"/>
<path d="M175.37 669.649C170.301 673.083 164.966 674.262 159.365 673.185C153.888 672.024 149.224 668.6 145.37 662.912C142.02 657.966 140.883 652.692 141.96 647.092C143.077 641.284 146.232 636.621 151.425 633.103C156.371 629.752 161.686 628.677 167.371 629.878C172.971 630.955 177.446 633.967 180.797 638.913C184.65 644.601 186.039 650.245 184.962 655.845C184.008 661.362 180.811 665.963 175.37 669.649Z" fill="white"/>
<path d="M254.643 579.958L223.853 600.816L233.995 627.771L199.866 650.89L162.374 522.046L205.962 492.519L310.227 576.129L275.913 599.374L254.643 579.958ZM198.603 530.788L214.172 577.338L236.244 562.385L199.345 530.285L198.603 530.788Z" fill="white"/>
<path d="M336.036 560.81C330.966 564.244 325.631 565.423 320.031 564.346C314.554 563.185 309.889 559.761 306.036 554.073C302.685 549.127 301.549 543.853 302.625 538.253C303.742 532.445 306.897 527.782 312.091 524.264C317.037 520.913 322.352 519.838 328.036 521.039C333.637 522.116 338.112 525.127 341.463 530.074C345.316 535.762 346.704 541.406 345.627 547.006C344.674 552.523 341.477 557.124 336.036 560.81Z" fill="white"/>
<path d="M422.47 414.583L458.28 467.445C451.838 475.778 445.327 483.075 438.745 489.338C432.163 495.6 426.338 500.449 421.268 503.883C404.451 515.276 388.308 519.807 372.839 517.478C357.37 515.148 343.479 504.895 331.166 486.718C318.601 468.17 314.227 450.928 318.044 434.992C321.777 418.933 332.733 404.747 350.91 392.433C360.431 385.983 372.833 379.657 388.114 373.454C389.789 375.927 392.055 379.804 394.911 385.085C397.683 390.243 399.492 393.979 400.338 396.292L393.535 400.63C385.206 405.911 378.754 410.102 374.179 413.201C360.453 422.499 353.517 428.371 353.369 430.816C352.982 434.506 354.031 439.117 356.517 444.649C359.125 450.098 361.979 455.11 365.079 459.685C370.691 467.97 375.974 473.772 380.928 477.09C385.883 480.409 390.905 481.697 395.994 480.956C401.084 480.214 406.906 477.623 413.46 473.183L414.201 472.681L389.825 436.697L422.47 414.583Z" fill="white"/>
<path d="M494.528 453.443C489.459 456.877 484.123 458.056 478.523 456.979C473.046 455.818 468.381 452.394 464.528 446.706C461.177 441.76 460.041 436.487 461.118 430.886C462.234 425.078 465.39 420.415 470.583 416.897C475.529 413.547 480.844 412.472 486.529 413.672C492.129 414.749 496.604 417.761 499.955 422.707C503.808 428.395 505.196 434.039 504.119 439.639C503.166 445.156 499.969 449.757 494.528 453.443Z" fill="white"/>
<path d="M573.801 363.752L543.011 384.61L553.152 411.565L519.024 434.684L481.532 305.84L525.12 276.313L629.385 359.923L595.071 383.168L573.801 363.752ZM517.761 314.582L533.33 361.132L555.402 346.179L518.503 314.079L517.761 314.582Z" fill="white"/>
</g>
<g opacity="0.1">
<path d="M1199 379.593L1413.07 159.053L2084.18 767.344L1898.64 1013.74L1199 379.593Z" fill="#DD392D" stroke="white" stroke-width="13"/>
<path d="M1454.36 489.393L1426.47 464.116L1471.56 410.038C1480.55 399.446 1487.24 391.293 1491.61 385.58L1491.11 385.129C1485.97 388.13 1478.5 393.255 1468.71 400.503L1464.12 403.901L1405.72 445.309L1377.83 420.033L1410.49 364.662L1416.35 354.858C1423.35 342.46 1427.97 334.144 1430.19 329.911L1429.69 329.46C1424.24 334.592 1415.67 343.26 1404.01 355.464C1403.19 356.138 1402.04 357.305 1400.53 358.965L1358.41 402.429L1330.36 377.002L1420.1 285.996L1467.58 329.027L1438.7 377.234L1430.76 389.995C1434.76 387.367 1439.05 384.301 1443.63 380.798L1487.83 347.383L1536.3 391.316L1454.36 489.393Z" fill="white"/>
<path d="M1481.75 516.636C1477.21 512.524 1474.8 507.619 1474.52 501.923C1474.35 496.327 1476.57 490.984 1481.19 485.894C1485.2 481.467 1490.05 479.114 1495.75 478.834C1501.66 478.544 1506.93 480.506 1511.58 484.719C1516.01 488.731 1518.31 493.64 1518.49 499.447C1518.77 505.143 1516.9 510.204 1512.89 514.631C1508.28 519.721 1503.12 522.406 1497.43 522.686C1491.84 523.066 1486.61 521.049 1481.75 516.636Z" fill="white"/>
<path d="M1587.65 572.418L1560.1 547.442L1536.31 563.677L1505.77 535.993L1622.07 469.061L1661.08 504.418L1604.54 625.515L1573.83 597.681L1587.65 572.418ZM1622.16 506.329L1580.62 532.477L1600.37 550.382L1622.82 506.931L1622.16 506.329Z" fill="white"/>
<path d="M1625.53 646.963C1620.99 642.851 1618.59 637.946 1618.31 632.25C1618.14 626.654 1620.36 621.311 1624.97 616.221C1628.99 611.794 1633.84 609.441 1639.54 609.162C1645.44 608.872 1650.72 610.833 1655.37 615.046C1659.79 619.058 1662.1 623.967 1662.28 629.774C1662.56 635.47 1660.69 640.532 1656.68 644.958C1652.06 650.049 1646.91 652.734 1641.21 653.013C1635.63 653.393 1630.4 651.377 1625.53 646.963Z" fill="white"/>
<path d="M1788.06 696.317L1745.18 743.625C1735.56 739.339 1726.93 734.741 1719.29 729.829C1711.65 724.917 1705.56 720.405 1701.02 716.293C1685.97 702.651 1677.74 688.04 1676.34 672.46C1674.95 656.879 1681.62 640.955 1696.36 624.688C1711.41 608.089 1727.12 599.757 1743.51 599.693C1760 599.518 1776.37 606.802 1792.64 621.547C1801.16 629.271 1810.24 639.821 1819.89 653.199C1817.88 655.413 1814.65 658.532 1810.2 662.557C1805.84 666.472 1802.64 669.114 1800.6 670.483L1794.77 664.901C1787.67 658.059 1782.07 652.783 1777.97 649.072C1765.69 637.938 1758.34 632.589 1755.93 633.024C1752.26 633.522 1748.02 635.633 1743.24 639.358C1738.56 643.182 1734.37 647.142 1730.66 651.236C1723.94 658.651 1719.55 665.157 1717.5 670.757C1715.45 676.356 1715.38 681.54 1717.31 686.309C1719.24 691.079 1723.13 696.121 1729 701.437L1729.66 702.039L1758.85 669.837L1788.06 696.317Z" fill="white"/>
<path d="M1767.37 775.527C1762.83 771.415 1760.43 766.51 1760.15 760.814C1759.98 755.219 1762.2 749.875 1766.81 744.785C1770.83 740.358 1775.68 738.005 1781.38 737.726C1787.28 737.436 1792.56 739.397 1797.21 743.61C1801.63 747.622 1803.94 752.531 1804.12 758.338C1804.4 764.034 1802.53 769.096 1798.52 773.522C1793.9 778.613 1788.75 781.298 1783.05 781.577C1777.47 781.957 1772.24 779.941 1767.37 775.527Z" fill="white"/>
<path d="M1873.28 831.309L1845.73 806.333L1821.94 822.569L1791.4 794.885L1907.7 727.952L1946.71 763.31L1890.16 884.406L1859.45 856.572L1873.28 831.309ZM1907.78 765.221L1866.24 791.368L1886 809.273L1908.45 765.823L1907.78 765.221Z" fill="white"/>
</g>
</g>
<defs>
<clipPath id="clip0_3_47">
<rect width="1920" height="1080" fill="white"/>
</clipPath>
</defs>
</svg>
